# xmcd CD database file
#
# Track frame offsets:
#	150
#	23149
#	40623
#	59371
#	78234
#	97636
#	116271
#	134472
#	154628
#	175589
#	195611
#	217366
#
# Disc length: 3113 seconds
#
# Revision: 2
# Processed by: cddbd v1.4PL0 Copyright (c) Steve Scherf et al.
# Submitted via: CDex 1.40PlusFr
#
DISCID=910c270c
DTITLE=Céline Dion - S'il suffisait d'aimer
DYEAR=2001
DGENRE=Chanson
TTITLE0=Je crois toi
TTITLE1=Zora sourit
TTITLE2=On ne change pas
TTITLE3=Je chanterai
TTITLE4=Terre
TTITLE5=En attendant ses pas
TTITLE6=Papillon
TTITLE7=L'abandon
TTITLE8=Dans un autre monde
TTITLE9=Sur le même bateau
TTITLE10=Tous les blues sont écrits pour toi
TTITLE11=S'il suffisait d'aimer
EXTD=YEAR: 2001 ID3G: 102
EXTT0=
EXTT1=
EXTT2=
EXTT3=
EXTT4=
EXTT5=
EXTT6=
EXTT7=
EXTT8=
EXTT9=
EXTT10=
EXTT11=
PLAYORDER=
